<?xml version="1.0" encoding="iso-8859-1"?>
<!-- Generator: Adobe Illustrator 19.0.0, SVG Export Plug-In . SVG Version: 6.00 Build 0)  -->
<svg version="1.1" id="Layer_1"
	xmlns="http://www.w3.org/2000/svg"
	xmlns:xlink="http://www.w3.org/1999/xlink" x="0px" y="0px" viewBox="0 0 475 475" style="enable-background:new 0 0 475 475;" xml:space="preserve">
	<g transform="translate(0 -540.36)">
		<g>
			<g>
				<path d="M405.7,610.06c-44.7-44.9-104.3-69.7-167.8-69.7C106.7,540.36,0,647.06,0,778.26c0,63.5,24.8,123.1,69.7,167.8
				c44.9,44.7,104.6,69.3,168.2,69.3c63.5,0,123.1-24.6,167.8-69.3c44.7-44.7,69.3-104.3,69.3-167.8
				C475,714.66,450.4,654.96,405.7,610.06z M230,1000.16c-116.9-4-211.2-98.2-214.9-214.8H230V1000.16z M230,770.36H15.2
				c4-116.6,98.2-210.8,214.8-214.8V770.36z M245,555.46c116.6,3.7,210.8,98,214.8,214.9H245V555.46z M245,1000.26v-214.9h214.9
				C456.2,902.16,361.8,996.56,245,1000.26z"/>
				<path d="M101.7,887.36h77.6c4.2,0,7.5-3.4,7.5-7.5s-3.4-7.5-7.5-7.5h-77.6c-4.1,0-7.5,3.4-7.5,7.5S97.6,887.36,101.7,887.36z"/>
				<path d="M378.3,656.36h-87.7c-4.1,0-7.5,3.4-7.5,7.5s3.4,7.5,7.5,7.5h87.7c4.1,0,7.5-3.4,7.5-7.5S382.4,656.36,378.3,656.36z"/>
				<path d="M378.3,699.76h-87.7c-4.1,0-7.5,3.4-7.5,7.5s3.4,7.5,7.5,7.5h87.7c4.1,0,7.5-3.4,7.5-7.5S382.4,699.76,378.3,699.76z"/>
				<path d="M373.5,851.46c2.9-2.9,2.9-7.7,0-10.6c-2.9-2.9-7.7-2.9-10.6,0l-28.4,28.4l-28.4-28.4c-2.9-2.9-7.7-2.9-10.6,0
				c-2.9,2.9-2.9,7.7,0,10.6l28.4,28.4l-28.4,28.4c-2.9,2.9-2.9,7.7,0,10.6c1.5,1.5,3.4,2.2,5.3,2.2c1.9,0,3.8-0.7,5.3-2.2
				l28.4-28.4l28.4,28.4c1.5,1.5,3.4,2.2,5.3,2.2c1.9,0,3.8-0.7,5.3-2.2c2.9-2.9,2.9-7.7,0-10.6l-28.4-28.4h0L373.5,851.46z"/>
				<path d="M96.8,693.06h36.3v36.7c0,4.1,3.4,7.5,7.5,7.5c4.1,0,7.5-3.4,7.5-7.5v-36.7h36.3c4.1,0,7.5-3.4,7.5-7.5s-3.4-7.5-7.5-7.5
				h-36.3v-35.9c0-4.1-3.4-7.5-7.5-7.5c-4.1,0-7.5,3.4-7.5,7.5v35.9H96.8c-4.1,0-7.5,3.4-7.5,7.5S92.7,693.06,96.8,693.06z"/>
			</g>
		</g>
	</g>
	<g>
	</g>
	<g>
	</g>
	<g>
	</g>
	<g>
	</g>
	<g>
	</g>
	<g>
	</g>
	<g>
	</g>
	<g>
	</g>
	<g>
	</g>
	<g>
	</g>
	<g>
	</g>
	<g>
	</g>
	<g>
	</g>
	<g>
	</g>
	<g>
	</g>
</svg>
